<svg width="21" height="19" viewBox="0 0 21 19" fill="none" xmlns="http://www.w3.org/2000/svg">
<path d="M0.75 3.375H20.25C20.6642 3.375 21 3.03923 21 2.625V0.75C21 0.335766 20.6642 0 20.25 0H0.75C0.335766 0 0 0.335766 0 0.75V2.625C0 3.03923 0.335766 3.375 0.75 3.375ZM0.75 10.875H20.25C20.6642 10.875 21 10.5392 21 10.125V8.25C21 7.83577 20.6642 7.5 20.25 7.5H0.75C0.335766 7.5 0 7.83577 0 8.25V10.125C0 10.5392 0.335766 10.875 0.75 10.875ZM0.75 18.375H20.25C20.6642 18.375 21 18.0392 21 17.625V15.75C21 15.3358 20.6642 15 20.25 15H0.75C0.335766 15 0 15.3358 0 15.75V17.625C0 18.0392 0.335766 18.375 0.75 18.375Z" fill="#004554"/>
</svg>
