<svg width="132" height="24" viewBox="0 0 132 24" fill="none" xmlns="http://www.w3.org/2000/svg">
<g clip-path="url(#clip0_4236_55417)">
<path d="M2.5752 9.32618C2.78615 9.11523 3.1282 9.11523 3.33917 9.32618L14.799 20.786C15.01 20.997 15.01 21.339 14.799 21.55L12.507 23.842C12.2961 24.0529 11.954 24.0529 11.743 23.842L0.283227 12.3821C0.0722577 12.1712 0.0722574 11.8291 0.283227 11.6182L2.5752 9.32618Z" fill="#00B3DB"/>
<path d="M7.15919 4.74222C7.37014 4.53124 7.71219 4.53124 7.92317 4.74222L19.383 16.202C19.594 16.413 19.594 16.7551 19.383 16.966L17.091 19.258C16.8801 19.469 16.538 19.469 16.327 19.258L4.86722 7.79817C4.65624 7.58719 4.65624 7.24514 4.86722 7.03417L7.15919 4.74222Z" fill="#003642"/>
<path d="M7.15919 4.74222C7.37014 4.53124 7.71219 4.53124 7.92317 4.74222L19.383 16.202C19.594 16.413 19.594 16.7551 19.383 16.966L17.091 19.258C16.8801 19.469 16.538 19.469 16.327 19.258L4.86722 7.79817C4.65624 7.58719 4.65624 7.24514 4.86722 7.03417L7.15919 4.74222Z" fill="#00B3DB" fill-opacity="0.5"/>
<path d="M11.7432 0.158227C11.9541 -0.0527425 12.2962 -0.0527422 12.5071 0.158227L23.967 11.618C24.1779 11.829 24.1779 12.1711 23.967 12.382L21.675 14.674C21.464 14.885 21.122 14.885 20.911 14.674L9.45118 3.21417C9.24023 3.0032 9.24023 2.66115 9.45118 2.45019L11.7432 0.158227Z" fill="#003642"/>
<path d="M11.7432 0.158227C11.9541 -0.0527425 12.2962 -0.0527422 12.5071 0.158227L23.967 11.618C24.1779 11.829 24.1779 12.1711 23.967 12.382L21.675 14.674C21.464 14.885 21.122 14.885 20.911 14.674L9.45118 3.21417C9.24023 3.0032 9.24023 2.66115 9.45118 2.45019L11.7432 0.158227Z" fill="#00B3DB" fill-opacity="0.1"/>
<path d="M30.125 17.7589C30.125 17.8279 30.181 17.8839 30.25 17.8839H33.338C33.407 17.8839 33.463 17.8279 33.463 17.7589V12.1116C33.463 11.971 33.6595 11.9375 33.706 12.0703L35.716 17.8003C35.7335 17.8504 35.7808 17.8839 35.8338 17.8839H38.4497C38.5027 17.8839 38.55 17.8504 38.5675 17.8003L40.5605 12.12C40.607 11.9872 40.8032 12.0207 40.8032 12.1613V17.7589C40.8032 17.8279 40.8592 17.8839 40.9282 17.8839H44.0163C44.0855 17.8839 44.1413 17.8279 44.1413 17.7589V6.30762C44.1413 6.23859 44.0855 6.18262 44.0163 6.18262H40.2077C40.156 6.18262 40.1098 6.21432 40.0913 6.26244L37.291 13.487C37.25 13.593 37.1003 13.5936 37.0583 13.4879L34.1927 6.26154C34.1737 6.21389 34.1277 6.18262 34.0765 6.18262H30.25C30.181 6.18262 30.125 6.23859 30.125 6.30762V17.7589Z" fill="#003642"/>
<path d="M49.1948 14.1386C49.2043 14.1566 49.2093 14.1767 49.2093 14.1971V17.7589C49.2093 17.8279 49.265 17.8839 49.3343 17.8839H52.4393C52.5083 17.8839 52.5643 17.8279 52.5643 17.7589V14.1971C52.5643 14.1767 52.5693 14.1566 52.5788 14.1386L56.6908 6.36607C56.7348 6.28282 56.6745 6.18262 56.5803 6.18262H53.1035C53.055 6.18262 53.0108 6.21069 52.9903 6.25464L51.0255 10.4551C50.9805 10.5512 50.844 10.5512 50.799 10.4551L48.834 6.25464C48.8135 6.21069 48.7695 6.18262 48.721 6.18262H45.193C45.099 6.18262 45.0385 6.28282 45.0825 6.36607L49.1948 14.1386Z" fill="#003642"/>
<path d="M61.1053 11.3445C61.0363 11.3445 60.9803 11.2885 60.9803 11.2195V8.93007C60.9803 8.86102 61.0363 8.80507 61.1053 8.80507H62.3088C63.3136 8.80507 63.7223 9.30299 63.7223 10.0831C63.7223 10.8466 63.3136 11.3445 62.3088 11.3445H61.1053ZM67.1283 10.0831C67.1283 7.82579 65.6126 6.18262 62.6323 6.18262H57.7673C57.6983 6.18262 57.6423 6.23857 57.6423 6.30762V17.7589C57.6423 17.8279 57.6983 17.8839 57.7673 17.8839H60.8553C60.9243 17.8839 60.9803 17.8279 60.9803 17.7589V14.0586C60.9803 13.9896 61.0363 13.9336 61.1053 13.9336H62.6323C65.6808 13.9336 67.1283 12.1246 67.1283 10.0831Z" fill="#003642"/>
<path d="M80.2031 11.9917C80.2031 8.47305 77.4789 6 74.0551 6C70.6491 6 67.8901 8.47305 67.8901 11.9917C67.8901 15.5104 70.6491 18 74.0551 18C77.4611 18 80.2031 15.5104 80.2031 11.9917ZM71.2964 11.9917C71.2964 10.1494 72.3181 8.98755 74.0551 8.98755C75.7759 8.98755 76.8141 10.1494 76.8141 11.9917C76.8141 13.8008 75.7759 14.9792 74.0551 14.9792C72.3181 14.9792 71.2964 13.8008 71.2964 11.9917Z" fill="#003642"/>
<path d="M81.6589 6.18262C81.5899 6.18262 81.5339 6.23857 81.5339 6.30762V17.7589C81.5339 17.8279 81.5899 17.8839 81.6589 17.8839H88.4767C88.5457 17.8839 88.6017 17.8279 88.6017 17.7589V15.5193C88.6017 15.4502 88.5457 15.3943 88.4767 15.3943H84.9964C84.9274 15.3943 84.8714 15.3383 84.8714 15.2693V6.30762C84.8714 6.23857 84.8154 6.18262 84.7464 6.18262H81.6589Z" fill="#003642"/>
<path d="M89.7292 17.7589C89.7292 17.8279 89.7852 17.8839 89.8542 17.8839H92.9425C93.0117 17.8839 93.0675 17.8279 93.0675 17.7589V6.30762C93.0675 6.23857 93.0117 6.18262 92.9425 6.18262H89.8542C89.7852 6.18262 89.7292 6.23857 89.7292 6.30762V17.7589Z" fill="#003642"/>
<path d="M94.1335 8.64684C94.1335 8.71587 94.1893 8.77184 94.2585 8.77184H97.176C97.245 8.77184 97.301 8.82779 97.301 8.89684V17.7589C97.301 17.8279 97.357 17.8839 97.426 17.8839H100.515C100.584 17.8839 100.64 17.8279 100.64 17.7589V8.89684C100.64 8.82779 100.695 8.77184 100.765 8.77184H103.716C103.785 8.77184 103.841 8.71587 103.841 8.64684V6.30762C103.841 6.23857 103.785 6.18262 103.716 6.18262H94.2585C94.1893 6.18262 94.1335 6.23857 94.1335 6.30762V8.64684Z" fill="#003642"/>
<path d="M104.906 17.7589C104.906 17.8279 104.962 17.8839 105.031 17.8839H108.119C108.188 17.8839 108.244 17.8279 108.244 17.7589V6.30762C108.244 6.23859 108.188 6.18262 108.119 6.18262H105.031C104.962 6.18262 104.906 6.23859 104.906 6.30762V17.7589Z" fill="#003642"/>
<path d="M109.566 12.0084C109.566 15.5104 111.933 17.9668 115.544 17.9668C118.5 17.9668 120.621 16.3385 121.264 13.7707C121.283 13.693 121.224 13.6183 121.144 13.6183H117.785C117.737 13.6183 117.693 13.6459 117.671 13.6884C117.237 14.5235 116.454 14.9793 115.492 14.9793C113.96 14.9793 112.955 13.8174 112.955 12.0084C112.955 10.2158 113.96 9.05396 115.492 9.05396C116.454 9.05396 117.237 9.50976 117.671 10.3448C117.693 10.3874 117.737 10.415 117.785 10.415H121.144C121.224 10.415 121.283 10.3403 121.264 10.2626C120.621 7.69478 118.5 6.06641 115.544 6.06641C111.933 6.06641 109.566 8.52288 109.566 12.0084Z" fill="#003642"/>
<path d="M131.72 14.332C131.72 10.5809 125.946 11.1452 125.946 9.40252C125.946 8.83815 126.338 8.556 126.832 8.57265C127.41 8.57265 127.853 8.86842 127.929 9.51577C127.937 9.5821 127.991 9.63488 128.058 9.63488H131.435C131.507 9.63488 131.564 9.57427 131.558 9.50295C131.378 7.26165 129.589 6 126.883 6C124.346 6 122.387 7.2282 122.387 9.5187C122.336 13.585 128.16 12.7054 128.177 14.5809C128.177 15.1286 127.717 15.4274 127.122 15.4274C126.536 15.4274 126.028 15.155 125.924 14.3645C125.916 14.2997 125.862 14.249 125.797 14.249H122.485C122.413 14.249 122.356 14.31 122.362 14.3814C122.564 16.799 124.614 18 127.241 18C130.085 18 131.72 16.39 131.72 14.332Z" fill="#003642"/>
</g>
<defs>
<clipPath id="clip0_4236_55417">
<rect width="131.75" height="24" fill="white"/>
</clipPath>
</defs>
</svg>
