<svg width="16" height="12" viewBox="0 0 16 12" fill="none" xmlns="http://www.w3.org/2000/svg">
<path d="M10.4 8H11.6C11.8 8 12 7.8 12 7.6V3.4C12 3.2 11.8 3 11.6 3H10.4C10.2 3 10 3.2 10 3.4V7.6C10 7.8 10.2 8 10.4 8ZM13.4 8H14.6C14.8 8 15 7.8 15 7.6V0.4C15 0.2 14.8 0 14.6 0H13.4C13.2 0 13 0.2 13 0.4V7.6C13 7.8 13.2 8 13.4 8ZM4.4 8H5.6C5.8 8 6 7.8 6 7.6V5.4C6 5.2 5.8 5 5.6 5H4.4C4.2 5 4 5.2 4 5.4V7.6C4 7.8 4.2 8 4.4 8ZM7.4 8H8.6C8.8 8 9 7.8 9 7.6V1.4C9 1.2 8.8 1 8.6 1H7.4C7.2 1 7 1.2 7 1.4V7.6C7 7.8 7.2 8 7.4 8ZM15.5 10H2V0.5C2 0.22375 1.77625 0 1.5 0H0.5C0.22375 0 0 0.22375 0 0.5V11C0 11.5522 0.447812 12 1 12H15.5C15.7762 12 16 11.7762 16 11.5V10.5C16 10.2238 15.7762 10 15.5 10Z" fill="currentColor"/>
</svg>