<svg width="19" height="14" viewBox="0 0 19 14" fill="none" xmlns="http://www.w3.org/2000/svg">
<path d="M0 1.06944C0 0.478807 0.481615 0 1.07572 0H4.79183V5.83333H1.07572C0.481615 5.83333 0 5.35453 0 4.76389V1.06944Z" fill="white"/>
<path d="M0 9.23611C0 8.64547 0.481615 8.16667 1.07572 8.16667H8.21457V14H1.07572C0.481615 14 0 13.5212 0 12.9306V9.23611Z" fill="white"/>
<path fill-rule="evenodd" clip-rule="evenodd" d="M5.91645 0H17.6516C18.2457 0 18.7273 0.478807 18.7273 1.06944V4.76389C18.7273 5.35453 18.2457 5.83333 17.6516 5.83333H5.91645V4.13194H7.62782H9.33919H10.4638H17.0159V1.70139H7.62782H5.91645V0Z" fill="white"/>
<path fill-rule="evenodd" clip-rule="evenodd" d="M11.0506 9.86806H12.9086L14.0332 9.86806H17.0159V12.2986L11.0506 12.2986L9.33919 12.2986V9.86806H11.0506ZM18.7273 12.9306C18.7273 13.5212 18.2457 14 17.6516 14H9.33919L9.33919 8.16667L17.6516 8.16667C18.2457 8.16667 18.7273 8.64547 18.7273 9.23611L18.7273 12.9306Z" fill="white"/>
<path fill-rule="evenodd" clip-rule="evenodd" d="M10.4638 4.18056V4.13194H9.33919V4.18056H10.4638Z" fill="white"/>
<path fill-rule="evenodd" clip-rule="evenodd" d="M14.0332 9.81944H12.9086V9.86806L14.0332 9.86806V9.81944Z" fill="white"/>
</svg>