<svg width="192" height="192" viewBox="0 0 192 192" fill="none" xmlns="http://www.w3.org/2000/svg">
<rect width="192" height="192" rx="96" fill="#D4E1E4"/>
<path d="M126 153.04C119.36 153.04 114 146.32 114 138C114 129.76 119.36 123.04 126 123.04C132.64 123.04 138 129.76 138 138C138 146.32 132.64 153.04 126 153.04ZM96.0001 89.9999C86.0801 89.9999 78.0001 83.2799 78.0001 75.0399C78.0001 66.7199 86.0801 59.9999 96.0001 59.9999C105.92 59.9999 114 66.7199 114 75.0399C114 83.2799 105.92 89.9999 96.0001 89.9999ZM66.0001 153.04C59.3601 153.04 54.0001 146.32 54.0001 138C54.0001 129.76 59.3601 123.04 66.0001 123.04C72.6401 123.04 78.0001 129.76 78.0001 138C78.0001 146.32 72.6401 153.04 66.0001 153.04ZM96.0001 65.9999C99.2801 65.9999 102 68.7199 102 71.9999C102 75.2799 99.2801 77.9999 96.0001 77.9999C92.7201 77.9999 90.0001 75.2799 90.0001 71.9999C90.0001 68.7199 92.7201 65.9999 96.0001 65.9999ZM150 95.9999C147.44 95.9999 144.96 96.5599 142.72 97.5999C138.88 92.7199 133.68 88.5599 127.44 85.3599C132 78.9599 134.72 71.1999 134.72 62.7999V62.3199C143.44 60.4799 150 52.7199 150 43.3599C150 32.7199 141.28 23.9999 130.64 23.9999C125.12 23.9999 120 26.3199 116.64 29.9999C110.47 26.0786 103.311 23.9961 96.0001 23.9961C88.6895 23.9961 81.5301 26.0786 75.3601 29.9999C72.0001 26.3199 66.8801 23.9999 61.3601 23.9999C50.7201 23.9999 42.0001 32.7199 42.0001 43.3599C42.0001 52.6399 48.5601 60.3999 57.2001 62.3199V62.7999C57.2001 71.1999 60.0001 79.0399 64.4801 85.3599C58.3201 88.5599 53.1201 92.7199 49.2801 97.5999C46.5462 96.3684 43.547 95.8426 40.5572 96.0706C37.5675 96.2986 34.6827 97.2732 32.1672 98.9051C29.6517 100.537 27.5859 102.774 26.159 105.411C24.7322 108.048 23.9899 111.001 24.0001 114C24.0001 124 32.0001 132 42.0001 132H42.4801C42.1601 133.92 42.0001 136 42.0001 138C42.0001 154.56 52.7201 168 66.0001 168C74.0801 168 81.2001 162.96 85.6001 155.28C88.9601 155.76 92.4001 156 96.0001 156C99.6001 156 103.04 155.76 106.4 155.28C110.8 162.96 117.92 168 126 168C139.28 168 150 154.56 150 138C150 136 149.84 133.92 149.52 132H150C160 132 168 124 168 114C168 104 160 95.9999 150 95.9999Z" fill="#004554"/>
</svg>
