<svg width="68" height="16" viewBox="38 0 68 16" fill="none" xmlns="http://www.w3.org/2000/svg">
  <path d="M45.8917 2.84694C46.8734 2.23349 47.4698 1.15758 47.4699 0L49.0022 6.86631e-05C49.0021 1.68597 48.1335 3.25293 46.7038 4.14638L46.2988 4.39951L45.5 3.0918L45.8917 2.84694Z" fill="#D91919"/>
  <path d="M49.3344 4.03798L49.5716 3.70432C50.3408 2.62228 50.7542 1.32757 50.7543 0L52.2866 6.612e-05C52.2865 1.64583 51.7741 3.2508 50.8205 4.59217L50.5833 4.92583C49.9064 5.87801 49.0689 6.70279 48.1098 7.36425L47.3096 6.05421C48.0926 5.50255 48.7777 4.8211 49.3344 4.03798Z" fill="#D91919"/>
  <path d="M50.2266 7.88597C51.4677 6.85759 52.4653 5.56675 53.1475 4.10638L53.1823 4.03192C53.7721 2.76961 54.0777 1.3933 54.0778 0L55.6101 0.000134783C55.61 1.6175 55.2552 3.21513 54.5706 4.6805L54.5358 4.75497C53.7577 6.4206 52.6199 7.8929 51.2043 9.06588L49.8401 10.1963L49.033 8.87508L50.2266 7.88597Z" fill="#D91919"/>
  <path d="M40.5687 14.065L39.0364 14.0649C39.0366 9.88246 41.1345 5.98735 44.6073 3.68359L45.4066 4.9923C42.3896 7.01666 40.5689 10.4161 40.5687 14.065Z" fill="black" fill-opacity="0.25"/>
  <path d="M43.8531 14.0654L42.3208 14.0653C42.3209 11.0523 43.8713 8.24596 46.4175 6.64746L47.2164 7.95523C45.1271 9.27461 43.8532 11.5847 43.8531 14.0654Z" fill="black" fill-opacity="0.25"/>
  <path d="M48.4389 11.3798C47.6394 12.0424 47.1767 13.0267 47.1767 14.065L45.6443 14.0649C45.6444 12.5703 46.3104 11.1536 47.4613 10.2L48.2094 9.58008L49.0165 10.9013L48.4389 11.3798Z" fill="black" fill-opacity="0.25"/>
  <path d="M71.0431 2.48794C70.9268 2.27461 70.7668 2.11222 70.5632 2.00075C70.3596 1.88922 70.122 1.83349 69.8506 1.83349C69.5501 1.83349 69.2834 1.90135 69.0507 2.03708C68.8181 2.17281 68.6363 2.36674 68.5053 2.6188C68.3745 2.87087 68.309 3.16173 68.309 3.49139C68.309 3.83071 68.3745 4.12644 68.5053 4.3785C68.6411 4.63056 68.8277 4.82449 69.0653 4.96022C69.3028 5.09595 69.5791 5.16382 69.8942 5.16382C70.282 5.16382 70.5996 5.06202 70.8468 4.85842C71.094 4.64996 71.2564 4.36157 71.3339 3.99311H69.5888V3.21506H72.3374V4.10217C72.2695 4.45603 72.1241 4.78329 71.9011 5.08382C71.6781 5.38441 71.3897 5.62674 71.0358 5.81101C70.6868 5.99034 70.2941 6.08 69.8578 6.08C69.3683 6.08 68.9247 5.97094 68.5272 5.75281C68.1345 5.52981 67.8243 5.22202 67.5964 4.82936C67.3734 4.4367 67.262 3.99071 67.262 3.49139C67.262 2.99206 67.3734 2.54607 67.5964 2.15342C67.8243 1.75596 68.1345 1.4481 68.5272 1.22997C68.9247 1.00697 69.3658 0.895508 69.8506 0.895508C70.4226 0.895508 70.9195 1.03604 71.3412 1.31723C71.7629 1.59356 72.0538 1.98375 72.2138 2.48794H71.0431Z" fill="black"/>
  <path d="M76.8352 3.93481C76.8352 4.08021 76.8255 4.21107 76.8061 4.3274H73.8612C73.8854 4.61826 73.9872 4.84612 74.1666 5.01092C74.3459 5.17578 74.5665 5.25818 74.8282 5.25818C75.2064 5.25818 75.4754 5.09578 75.6354 4.77099H76.7334C76.617 5.15878 76.3941 5.47871 76.0644 5.73084C75.7348 5.97803 75.33 6.10163 74.8501 6.10163C74.4622 6.10163 74.1133 6.01683 73.803 5.84717C73.4976 5.67264 73.2576 5.42784 73.0831 5.11272C72.9135 4.79766 72.8286 4.43407 72.8286 4.02201C72.8286 3.60515 72.9135 3.23916 73.0831 2.92403C73.2528 2.60897 73.4903 2.36657 73.7957 2.19691C74.1011 2.02725 74.4526 1.94238 74.8501 1.94238C75.233 1.94238 75.5748 2.02485 75.8753 2.18965C76.1807 2.35444 76.4159 2.58957 76.5807 2.89496C76.7503 3.19549 76.8352 3.54215 76.8352 3.93481ZM75.7808 3.64395C75.776 3.38215 75.6814 3.17369 75.4972 3.01856C75.313 2.85863 75.0876 2.77863 74.821 2.77863C74.5689 2.77863 74.3556 2.85616 74.1811 3.01129C74.0115 3.16156 73.9072 3.37242 73.8685 3.64395H75.7808Z" fill="black"/>
  <path d="M79.8107 1.9502C80.2906 1.9502 80.6784 2.10292 80.9741 2.40832C81.2698 2.70885 81.4176 3.13064 81.4176 3.67356V6.03678H80.3996V3.81169C80.3996 3.49176 80.3196 3.24697 80.1597 3.07731C79.9997 2.90278 79.7816 2.81551 79.5053 2.81551C79.2241 2.81551 79.0011 2.90278 78.8363 3.07731C78.6763 3.24697 78.5963 3.49176 78.5963 3.81169V6.03678H77.5784V2.00839H78.5963V2.51012C78.7321 2.33559 78.9041 2.19986 79.1126 2.10292C79.3259 2.00113 79.5586 1.9502 79.8107 1.9502Z" fill="black"/>
  <path d="M86.1309 3.93481C86.1309 4.08021 86.1209 4.21107 86.1015 4.3274H83.1562C83.1809 4.61826 83.2829 4.84612 83.4622 5.01092C83.6416 5.17578 83.8616 5.25818 84.1236 5.25818C84.5016 5.25818 84.7709 5.09578 84.9309 4.77099H86.0289C85.9122 5.15878 85.6895 5.47871 85.3595 5.73084C85.0302 5.97803 84.6256 6.10163 84.1456 6.10163C83.7576 6.10163 83.4089 6.01683 83.0983 5.84717C82.7929 5.67264 82.5529 5.42784 82.3783 5.11272C82.2089 4.79766 82.1243 4.43407 82.1243 4.02201C82.1243 3.60515 82.2089 3.23916 82.3783 2.92403C82.5483 2.60897 82.7856 2.36657 83.0909 2.19691C83.3962 2.02725 83.7482 1.94238 84.1456 1.94238C84.5282 1.94238 84.8702 2.02485 85.1709 2.18965C85.4762 2.35444 85.7115 2.58957 85.8762 2.89496C86.0455 3.19549 86.1309 3.54215 86.1309 3.93481ZM85.0762 3.64395C85.0715 3.38215 84.9769 3.17369 84.7929 3.01856C84.6082 2.85863 84.3829 2.77863 84.1162 2.77863C83.8642 2.77863 83.6509 2.85616 83.4762 3.01129C83.3069 3.16156 83.2029 3.37242 83.1636 3.64395H85.0762Z" fill="black"/>
  <path d="M87.8915 2.63371C88.0228 2.42045 88.1922 2.25319 88.4008 2.13199C88.6142 2.01079 88.8562 1.9502 89.1275 1.9502V3.01911H88.8588C88.5388 3.01911 88.2962 3.09424 88.1315 3.24457C87.9715 3.39483 87.8915 3.65656 87.8915 4.02982V6.03678H86.8735V2.00839H87.8915V2.63371Z" fill="black"/>
  <path d="M89.5513 4.00747C89.5513 3.60028 89.6313 3.23916 89.7913 2.92403C89.9559 2.60897 90.1766 2.36657 90.4532 2.19691C90.7346 2.02725 91.0472 1.94238 91.3912 1.94238C91.6919 1.94238 91.9532 2.00298 92.1765 2.12418C92.4045 2.24538 92.5859 2.39811 92.7219 2.5823V2.00785H93.7472V6.03623H92.7219V5.44724C92.5912 5.63631 92.4092 5.79384 92.1765 5.9199C91.9485 6.0411 91.6846 6.10163 91.3839 6.10163C91.0446 6.10163 90.7346 6.01443 90.4532 5.8399C90.1766 5.66537 89.9559 5.42058 89.7913 5.10545C89.6313 4.78552 89.5513 4.41953 89.5513 4.00747ZM92.7219 4.02201C92.7219 3.77481 92.6732 3.56395 92.5765 3.38942C92.4792 3.21009 92.3485 3.07429 92.1839 2.98223C92.0192 2.8853 91.8419 2.83677 91.6532 2.83677C91.4639 2.83677 91.2892 2.88283 91.1292 2.97496C90.9692 3.06703 90.8386 3.20276 90.7366 3.38215C90.6399 3.55668 90.5912 3.76508 90.5912 4.00747C90.5912 4.24987 90.6399 4.4632 90.7366 4.64739C90.8386 4.82672 90.9692 4.96492 91.1292 5.06185C91.2939 5.15878 91.4639 5.20725 91.6532 5.20725C91.8419 5.20725 92.0192 5.16125 92.1839 5.06912C92.3485 4.97219 92.4792 4.83646 92.5765 4.66193C92.6732 4.48253 92.7219 4.26927 92.7219 4.02201Z" fill="black"/>
  <path d="M94.48 4.02201C94.48 3.60515 94.5646 3.24156 94.734 2.9313C94.904 2.61624 95.1393 2.37384 95.4393 2.20418C95.74 2.02965 96.0839 1.94238 96.4719 1.94238C96.9713 1.94238 97.3833 2.06845 97.7079 2.32051C98.0379 2.56777 98.2586 2.91676 98.3699 3.36762H97.2719C97.2139 3.19309 97.1146 3.05736 96.9739 2.96043C96.8379 2.85863 96.6686 2.8077 96.4646 2.8077C96.1739 2.8077 95.944 2.91436 95.774 3.12763C95.6046 3.33609 95.5193 3.63422 95.5193 4.02201C95.5193 4.405 95.6046 4.70313 95.774 4.91639C95.944 5.12485 96.1739 5.22912 96.4646 5.22912C96.8766 5.22912 97.1459 5.04485 97.2719 4.67646H98.3699C98.2586 5.11272 98.0379 5.45938 97.7079 5.71631C97.3786 5.97317 96.9666 6.10163 96.4719 6.10163C96.0839 6.10163 95.74 6.01683 95.4393 5.84717C95.1393 5.67264 94.904 5.43024 94.734 5.12005C94.5646 4.80492 94.48 4.43893 94.48 4.02201Z" fill="black"/>
  <path d="M99.6317 1.52845C99.4477 1.52845 99.2951 1.47272 99.1737 1.36118C99.0571 1.24485 98.9991 1.10186 98.9991 0.932193C98.9991 0.76253 99.0571 0.621933 99.1737 0.510469C99.2951 0.394138 99.4477 0.335938 99.6317 0.335938C99.811 0.335938 99.959 0.394138 100.076 0.510469C100.192 0.621933 100.25 0.76253 100.25 0.932193C100.25 1.10186 100.192 1.24485 100.076 1.36118C99.959 1.47272 99.811 1.52845 99.6317 1.52845ZM100.134 6.69847C100.134 7.1444 100.022 7.46439 99.799 7.65825C99.581 7.85705 99.2657 7.95638 98.8537 7.95638H98.4031V7.09106H98.6937C98.8491 7.09106 98.9577 7.0596 99.0211 6.9966C99.0837 6.9384 99.1157 6.84147 99.1157 6.70574V2.00837H100.134V6.69847Z" fill="black"/>
  <path d="M100.878 4.00747C100.878 3.60028 100.958 3.23916 101.118 2.92403C101.282 2.60897 101.503 2.36657 101.779 2.19691C102.06 2.02725 102.373 1.94238 102.717 1.94238C103.018 1.94238 103.28 2.00298 103.502 2.12418C103.73 2.24538 103.912 2.39811 104.048 2.5823V2.00785H105.073V6.03623H104.048V5.44724C103.917 5.63631 103.735 5.79384 103.502 5.9199C103.275 6.0411 103.01 6.10163 102.71 6.10163C102.37 6.10163 102.06 6.01443 101.779 5.8399C101.503 5.66537 101.282 5.42058 101.118 5.10545C100.958 4.78552 100.878 4.41953 100.878 4.00747ZM104.048 4.02201C104.048 3.77481 104 3.56395 103.902 3.38942C103.806 3.21009 103.675 3.07429 103.51 2.98223C103.345 2.8853 103.168 2.83677 102.979 2.83677C102.79 2.83677 102.616 2.88283 102.456 2.97496C102.296 3.06703 102.164 3.20276 102.063 3.38215C101.966 3.55668 101.918 3.76508 101.918 4.00747C101.918 4.24987 101.966 4.4632 102.063 4.64739C102.164 4.82672 102.296 4.96492 102.456 5.06185C102.62 5.15878 102.795 5.20725 102.979 5.20725C103.168 5.20725 103.345 5.16125 103.51 5.06912C103.675 4.97219 103.806 4.83646 103.902 4.66193C104 4.48253 104.048 4.26927 104.048 4.02201Z" fill="black"/>
  <path d="M63.0349 8.96094V14.0654H61.7915V8.96094H63.0349Z" fill="black"/>
  <path d="M66.4083 9.96484C66.8834 9.96484 67.2615 10.12 67.5427 10.4302C67.8287 10.7356 67.9717 11.1574 67.9717 11.6954V14.0659H66.7356V11.8627C66.7356 11.5912 66.6652 11.3803 66.5246 11.2301C66.3841 11.0798 66.1951 11.0046 65.9575 11.0046C65.72 11.0046 65.5309 11.0798 65.3903 11.2301C65.2497 11.3803 65.1795 11.5912 65.1795 11.8627V14.0659H63.936V10.0084H65.1795V10.5466C65.3055 10.3672 65.4751 10.2266 65.6885 10.1248C65.9017 10.0182 66.1417 9.96484 66.4083 9.96484Z" fill="black"/>
  <path d="M71.308 9.96484C71.783 9.96484 72.1612 10.12 72.4424 10.4302C72.7283 10.7356 72.8713 11.1574 72.8713 11.6954V14.0659H71.6352V11.8627C71.6352 11.5912 71.5649 11.3803 71.4243 11.2301C71.2838 11.0798 71.0947 11.0046 70.8572 11.0046C70.6196 11.0046 70.4306 11.0798 70.29 11.2301C70.1494 11.3803 70.0791 11.5912 70.0791 11.8627V14.0659H68.8357V10.0084H70.0791V10.5466C70.2051 10.3672 70.3748 10.2266 70.5881 10.1248C70.8014 10.0182 71.0414 9.96484 71.308 9.96484Z" fill="black"/>
  <path d="M75.5825 14.124C75.185 14.124 74.8263 14.0391 74.5063 13.8694C74.1912 13.6998 73.9415 13.4574 73.7573 13.1423C73.578 12.8272 73.4883 12.4588 73.4883 12.0371C73.4883 11.6202 73.5804 11.2542 73.7646 10.9391C73.9488 10.6191 74.2009 10.3743 74.5209 10.2047C74.8408 10.035 75.1995 9.9502 75.597 9.9502C75.9945 9.9502 76.3532 10.035 76.6732 10.2047C76.9931 10.3743 77.2452 10.6191 77.4294 10.9391C77.6137 11.2542 77.7057 11.6202 77.7057 12.0371C77.7057 12.4539 77.6112 12.8224 77.4221 13.1423C77.2379 13.4574 76.9834 13.6998 76.6587 13.8694C76.3387 14.0391 75.98 14.124 75.5825 14.124ZM75.5825 13.0478C75.82 13.0478 76.0212 12.9605 76.186 12.786C76.3557 12.6115 76.4405 12.3619 76.4405 12.0371C76.4405 11.7123 76.3581 11.4626 76.1933 11.2881C76.0333 11.1136 75.8346 11.0263 75.597 11.0263C75.3546 11.0263 75.1534 11.1136 74.9935 11.2881C74.8335 11.4578 74.7535 11.7074 74.7535 12.0371C74.7535 12.3619 74.8311 12.6115 74.9862 12.786C75.1462 12.9605 75.345 13.0478 75.5825 13.0478Z" fill="black"/>
  <path d="M84.1895 10.0078H83.0915L83.0915 14.0653H81.7175L81.0776 11.433L80.4159 14.0653H79.0488L77.9436 10.0078H79.187L79.7614 12.9092L80.4449 10.0078H81.7611L82.4522 12.8945L83.0188 10.0078H84.1895Z" fill="black"/>
  <path d="M84.4167 12.0298C84.4167 11.6129 84.4941 11.2469 84.6494 10.9318C84.8094 10.6167 85.0247 10.3743 85.2967 10.2047C85.5681 10.035 85.8707 9.9502 86.2054 9.9502C86.4914 9.9502 86.7414 10.0083 86.9547 10.1247C87.1727 10.2411 87.34 10.3937 87.456 10.5828V10.0083H88.6993V14.0658H87.456V13.4913C87.3347 13.6804 87.1654 13.8331 86.9474 13.9494C86.734 14.0658 86.484 14.124 86.198 14.124C85.8687 14.124 85.5681 14.0391 85.2967 13.8694C85.0247 13.695 84.8094 13.4501 84.6494 13.1351C84.4941 12.8151 84.4167 12.4467 84.4167 12.0298ZM87.456 12.0371C87.456 11.7268 87.3687 11.482 87.194 11.3026C87.0247 11.1233 86.816 11.0336 86.5687 11.0336C86.322 11.0336 86.1107 11.1233 85.936 11.3026C85.7667 11.4772 85.6821 11.7196 85.6821 12.0298C85.6821 12.34 85.7667 12.5873 85.936 12.7715C86.1107 12.9509 86.322 13.0405 86.5687 13.0405C86.816 13.0405 87.0247 12.9509 87.194 12.7715C87.3687 12.5921 87.456 12.3473 87.456 12.0371Z" fill="black"/>
  <path d="M89.3521 12.0371C89.3521 11.6153 89.4367 11.2469 89.6067 10.9318C89.7807 10.6167 90.0207 10.3743 90.326 10.2047C90.6367 10.035 90.9907 9.9502 91.388 9.9502C91.8967 9.9502 92.3213 10.0835 92.6606 10.3501C93.0046 10.6167 93.23 10.9924 93.3366 11.4772H92.0133C91.902 11.1669 91.686 11.0118 91.366 11.0118C91.138 11.0118 90.9567 11.1015 90.8207 11.2808C90.6847 11.4554 90.6174 11.7074 90.6174 12.0371C90.6174 12.3667 90.6847 12.6212 90.8207 12.8005C90.9567 12.9751 91.138 13.0623 91.366 13.0623C91.686 13.0623 91.902 12.9072 92.0133 12.5969H93.3366C93.23 13.0721 93.0046 13.4453 92.6606 13.7168C92.316 13.9882 91.892 14.124 91.388 14.124C90.9907 14.124 90.6367 14.0391 90.326 13.8694C90.0207 13.6998 89.7807 13.4574 89.6067 13.1423C89.4367 12.8272 89.3521 12.4588 89.3521 12.0371Z" fill="black"/>
  <path d="M94.6198 9.58645C94.4018 9.58645 94.2225 9.52345 94.0818 9.39739C93.9459 9.26652 93.8779 9.10653 93.8779 8.91746C93.8779 8.7236 93.9459 8.56361 94.0818 8.43754C94.2225 8.30668 94.4018 8.24121 94.6198 8.24121C94.8332 8.24121 95.0078 8.30668 95.1432 8.43754C95.2838 8.56361 95.3538 8.7236 95.3538 8.91746C95.3538 9.10653 95.2838 9.26652 95.1432 9.39739C95.0078 9.52345 94.8332 9.58645 94.6198 9.58645ZM95.2452 14.5892C95.2452 15.0885 95.1192 15.4472 94.8672 15.6653C94.6152 15.8883 94.2632 15.9998 93.8125 15.9998H93.3252V14.9455H93.6239C93.7592 14.9455 93.8565 14.9188 93.9145 14.8655C93.9725 14.8122 94.0018 14.7249 94.0018 14.6037V10.0082H95.2452V14.5892Z" fill="black"/>
  <path d="M95.8918 12.0298C95.8918 11.6129 95.9692 11.2469 96.1245 10.9318C96.2845 10.6167 96.5005 10.3743 96.7718 10.2047C97.0432 10.035 97.3458 9.9502 97.6805 9.9502C97.9665 9.9502 98.2165 10.0083 98.4298 10.1247C98.6478 10.2411 98.8151 10.3937 98.9311 10.5828V10.0083H100.174V14.0658H98.9311V13.4913C98.8105 13.6804 98.6405 13.8331 98.4225 13.9494C98.2091 14.0658 97.9591 14.124 97.6731 14.124C97.3438 14.124 97.0432 14.0391 96.7718 13.8694C96.5005 13.695 96.2845 13.4501 96.1245 13.1351C95.9692 12.8151 95.8918 12.4467 95.8918 12.0298ZM98.9311 12.0371C98.9311 11.7268 98.8438 11.482 98.6698 11.3026C98.4998 11.1233 98.2911 11.0336 98.0445 11.0336C97.7971 11.0336 97.5858 11.1233 97.4118 11.3026C97.2418 11.4772 97.1572 11.7196 97.1572 12.0298C97.1572 12.34 97.2418 12.5873 97.4118 12.7715C97.5858 12.9509 97.7971 13.0405 98.0445 13.0405C98.2911 13.0405 98.4998 12.9509 98.6698 12.7715C98.8438 12.5921 98.9311 12.3473 98.9311 12.0371Z" fill="black"/>
</svg>
