<svg width="926" height="219" viewBox="0 0 926 219" fill="none" xmlns="http://www.w3.org/2000/svg">
<path d="M103.395 42.9494C118.204 33.6949 127.201 17.4643 127.202 0.0015476L150.317 0.00267966C150.316 25.4355 137.213 49.0736 115.645 62.5519L109.536 66.3697L97.4855 46.6426L103.395 42.9494Z" fill="#D91919"/>
<path d="M155.331 60.9178L158.909 55.8847C170.514 39.5618 176.749 20.0314 176.75 0.00393219L199.865 0.00507894C199.864 24.8323 192.134 49.0435 177.749 69.2783L174.171 74.3114C163.959 88.6752 151.325 101.118 136.858 111.096L124.786 91.3338C136.598 83.0114 146.932 72.7318 155.331 60.9178Z" fill="#D91919"/>
<path d="M168.789 118.969C187.511 103.455 202.56 83.9819 212.852 61.9525L213.377 60.829C222.273 41.7865 226.884 21.0245 226.885 0.00649286L250 0.00762492C249.999 24.4062 244.646 48.5075 234.319 70.6128L233.795 71.7363C222.056 96.8625 204.892 119.073 183.537 136.767L162.957 153.821L150.782 133.889L168.789 118.969Z" fill="#D91919"/>
<path d="M23.1154 212.177L4.31243e-05 212.176C0.00319039 149.083 31.6505 90.3244 84.0381 55.5712L96.0977 75.313C50.5835 105.851 23.1182 157.134 23.1154 212.177Z" fill="#C5C5C5"/>
<path d="M72.6635 212.18L49.5481 212.179C49.5504 166.727 72.9381 124.392 111.348 100.278L123.399 120.006C91.8813 139.909 72.6654 174.758 72.6635 212.18Z" fill="#C5C5C5"/>
<path d="M141.84 171.677C129.78 181.671 122.799 196.519 122.798 212.182L99.683 212.181C99.6841 189.635 109.732 168.263 127.092 153.878L138.378 144.526L150.553 164.457L141.84 171.677Z" fill="#C5C5C5"/>
<path d="M476.301 39.5719C474.573 36.2439 472.173 33.7479 469.101 32.0839C466.029 30.3559 462.477 29.4919 458.445 29.4919C454.029 29.4919 450.093 30.4839 446.637 32.4679C443.181 34.4519 440.461 37.2679 438.477 40.9159C436.557 44.5639 435.597 48.7879 435.597 53.5879C435.597 58.3879 436.557 62.6439 438.477 66.3559C440.461 70.0039 443.181 72.8199 446.637 74.8039C450.093 76.7879 454.029 77.7799 458.445 77.7799C464.397 77.7799 469.229 76.1159 472.941 72.7879C476.653 69.4599 478.925 64.9479 479.757 59.2519H454.701V50.5159H491.469V59.0599C490.765 64.2439 488.909 69.0119 485.901 73.3639C482.957 77.7159 479.085 81.2039 474.285 83.8279C469.549 86.3879 464.269 87.6679 458.445 87.6679C452.173 87.6679 446.445 86.2279 441.261 83.3479C436.077 80.4039 431.949 76.3399 428.877 71.1559C425.869 65.9719 424.365 60.1159 424.365 53.5879C424.365 47.0599 425.869 41.2039 428.877 36.0199C431.949 30.8359 436.077 26.8039 441.261 23.9239C446.509 20.9799 452.237 19.5079 458.445 19.5079C465.549 19.5079 471.853 21.2679 477.357 24.7879C482.925 28.2439 486.957 33.1719 489.453 39.5719H476.301ZM550.743 59.3479C550.743 61.3319 550.615 63.1239 550.359 64.7239H509.943C510.263 68.9479 511.831 72.3399 514.647 74.8999C517.463 77.4599 520.919 78.7399 525.015 78.7399C530.903 78.7399 535.063 76.2759 537.495 71.3479H549.302C547.703 76.2119 544.791 80.2119 540.567 83.3479C536.407 86.4199 531.223 87.9559 525.015 87.9559C519.959 87.9559 515.415 86.8359 511.383 84.5959C507.415 82.2919 504.279 79.0919 501.975 74.9959C499.735 70.8359 498.615 66.0359 498.615 60.5959C498.615 55.1559 499.703 50.3879 501.879 46.2919C504.119 42.1319 507.223 38.9319 511.191 36.6919C515.223 34.4519 519.831 33.3319 525.015 33.3319C530.007 33.3319 534.455 34.4199 538.359 36.5959C542.263 38.7719 545.303 41.8439 547.479 45.8119C549.655 49.7159 550.743 54.2279 550.743 59.3479ZM539.319 55.8919C539.255 51.8599 537.815 48.6279 534.999 46.1959C532.183 43.7639 528.695 42.5479 524.535 42.5479C520.759 42.5479 517.527 43.7639 514.839 46.1959C512.151 48.5639 510.551 51.7959 510.039 55.8919H539.319ZM588.201 33.3319C592.361 33.3319 596.073 34.1959 599.337 35.9239C602.665 37.6519 605.257 40.2119 607.113 43.6039C608.969 46.9959 609.897 51.0919 609.897 55.8919V87.0919H599.049V57.5239C599.049 52.7879 597.865 49.1719 595.497 46.6759C593.129 44.1159 589.897 42.8359 585.801 42.8359C581.705 42.8359 578.441 44.1159 576.009 46.6759C573.641 49.1719 572.457 52.7879 572.457 57.5239V87.0919H561.513V34.1959H572.457V40.2439C574.249 38.0679 576.521 36.3719 579.273 35.1559C582.089 33.9399 585.065 33.3319 588.201 33.3319ZM672.336 59.3479C672.336 61.3319 672.208 63.1239 671.952 64.7239H631.536C631.856 68.9479 633.424 72.3399 636.24 74.8999C639.056 77.4599 642.512 78.7399 646.608 78.7399C652.496 78.7399 656.656 76.2759 659.088 71.3479H670.896C669.296 76.2119 666.384 80.2119 662.16 83.3479C658 86.4199 652.816 87.9559 646.608 87.9559C641.552 87.9559 637.008 86.8359 632.976 84.5959C629.008 82.2919 625.872 79.0919 623.568 74.9959C621.328 70.8359 620.208 66.0359 620.208 60.5959C620.208 55.1559 621.296 50.3879 623.472 46.2919C625.712 42.1319 628.816 38.9319 632.784 36.6919C636.816 34.4519 641.424 33.3319 646.608 33.3319C651.6 33.3319 656.048 34.4199 659.952 36.5959C663.856 38.7719 666.896 41.8439 669.072 45.8119C671.248 49.7159 672.336 54.2279 672.336 59.3479ZM660.912 55.8919C660.848 51.8599 659.408 48.6279 656.592 46.1959C653.776 43.7639 650.288 42.5479 646.128 42.5479C642.352 42.5479 639.12 43.7639 636.432 46.1959C633.744 48.5639 632.144 51.7959 631.632 55.8919H660.912ZM694.05 41.8759C695.65 39.1879 697.762 37.1079 700.386 35.6359C703.074 34.0999 706.242 33.3319 709.89 33.3319V44.6599H707.106C702.818 44.6599 699.554 45.7479 697.314 47.9239C695.138 50.0999 694.05 53.8759 694.05 59.2519V87.0919H683.106V34.1959H694.05V41.8759ZM716.302 60.4039C716.302 55.0919 717.39 50.3879 719.566 46.2919C721.806 42.1959 724.814 39.0279 728.59 36.7879C732.43 34.4839 736.654 33.3319 741.262 33.3319C745.422 33.3319 749.038 34.1639 752.11 35.8279C755.246 37.4279 757.742 39.4439 759.598 41.8759V34.1959H770.638V87.0919H759.598V79.2199C757.742 81.7159 755.214 83.7959 752.014 85.4599C748.814 87.1239 745.166 87.9559 741.07 87.9559C736.526 87.9559 732.366 86.8039 728.59 84.4999C724.814 82.1319 721.806 78.8679 719.566 74.7079C717.39 70.4839 716.302 65.7159 716.302 60.4039ZM759.598 60.5959C759.598 56.9479 758.83 53.7799 757.294 51.0919C755.822 48.4039 753.87 46.3559 751.438 44.9479C749.006 43.5399 746.382 42.8359 743.566 42.8359C740.75 42.8359 738.126 43.5399 735.694 44.9479C733.262 46.2919 731.278 48.3079 729.742 50.9959C728.27 53.6199 727.534 56.7559 727.534 60.4039C727.534 64.0519 728.27 67.2519 729.742 70.0039C731.278 72.7559 733.262 74.8679 735.694 76.3399C738.19 77.7479 740.814 78.4519 743.566 78.4519C746.382 78.4519 749.006 77.7479 751.438 76.3399C753.87 74.9319 755.822 72.8839 757.294 70.1959C758.83 67.4439 759.598 64.2439 759.598 60.5959ZM781.365 60.5959C781.365 55.1559 782.453 50.3879 784.629 46.2919C786.869 42.1319 789.941 38.9319 793.845 36.6919C797.749 34.4519 802.229 33.3319 807.285 33.3319C813.685 33.3319 818.965 34.8679 823.125 37.9399C827.349 40.9479 830.197 45.2679 831.669 50.8999H819.861C818.901 48.2759 817.365 46.2279 815.253 44.7559C813.141 43.2839 810.485 42.5479 807.285 42.5479C802.805 42.5479 799.221 44.1479 796.533 47.3479C793.909 50.4839 792.597 54.8999 792.597 60.5959C792.597 66.2919 793.909 70.7399 796.533 73.9399C799.221 77.1399 802.805 78.7399 807.285 78.7399C813.621 78.7399 817.813 75.9559 819.861 70.3879H831.669C830.133 75.7639 827.253 80.0519 823.029 83.2519C818.805 86.3879 813.557 87.9559 807.285 87.9559C802.229 87.9559 797.749 86.8359 793.845 84.5959C789.941 82.2919 786.869 79.0919 784.629 74.9959C782.453 70.8359 781.365 66.0359 781.365 60.5959ZM848.143 27.1879C846.159 27.1879 844.495 26.5159 843.151 25.1719C841.807 23.8279 841.135 22.1639 841.135 20.1799C841.135 18.1959 841.807 16.5319 843.151 15.1879C844.495 13.8439 846.159 13.1719 848.143 13.1719C850.063 13.1719 851.695 13.8439 853.039 15.1879C854.383 16.5319 855.055 18.1959 855.055 20.1799C855.055 22.1639 854.383 23.8279 853.039 25.1719C851.695 26.5159 850.063 27.1879 848.143 27.1879ZM853.519 97.4599C853.519 102.644 852.207 106.388 849.583 108.692C847.023 111.06 843.279 112.244 838.351 112.244H832.687V103.028H836.431C838.671 103.028 840.239 102.58 841.135 101.684C842.095 100.852 842.575 99.4439 842.575 97.4599V34.1959H853.519V97.4599ZM864.24 60.4039C864.24 55.0919 865.328 50.3879 867.504 46.2919C869.744 42.1959 872.752 39.0279 876.528 36.7879C880.368 34.4839 884.592 33.3319 889.2 33.3319C893.36 33.3319 896.976 34.1639 900.048 35.8279C903.184 37.4279 905.68 39.4439 907.536 41.8759V34.1959H918.576V87.0919H907.536V79.2199C905.68 81.7159 903.152 83.7959 899.952 85.4599C896.752 87.1239 893.104 87.9559 889.008 87.9559C884.464 87.9559 880.304 86.8039 876.528 84.4999C872.752 82.1319 869.744 78.8679 867.504 74.7079C865.328 70.4839 864.24 65.7159 864.24 60.4039ZM907.536 60.5959C907.536 56.9479 906.768 53.7799 905.232 51.0919C903.76 48.4039 901.808 46.3559 899.376 44.9479C896.944 43.5399 894.32 42.8359 891.504 42.8359C888.688 42.8359 886.064 43.5399 883.632 44.9479C881.2 46.2919 879.216 48.3079 877.68 50.9959C876.208 53.6199 875.472 56.7559 875.472 60.4039C875.472 64.0519 876.208 67.2519 877.68 70.0039C879.216 72.7559 881.2 74.8679 883.632 76.3399C886.128 77.7479 888.752 78.4519 891.504 78.4519C894.32 78.4519 896.944 77.7479 899.376 76.3399C901.808 74.9319 903.76 72.8839 905.232 70.1959C906.768 67.4439 907.536 64.2439 907.536 60.5959ZM368.368 125.7V193.092H351.952V125.7H368.368ZM412.905 138.948C419.177 138.948 424.169 140.996 427.881 145.092C431.657 149.124 433.545 154.692 433.545 161.796V193.092H417.225V164.004C417.225 160.42 416.297 157.636 414.441 155.652C412.585 153.668 410.089 152.676 406.953 152.676C403.817 152.676 401.321 153.668 399.465 155.652C397.609 157.636 396.681 160.42 396.681 164.004V193.092H380.265V139.524H396.681V146.628C398.345 144.26 400.585 142.404 403.401 141.06C406.217 139.652 409.385 138.948 412.905 138.948ZM477.592 138.948C483.864 138.948 488.856 140.996 492.568 145.092C496.344 149.124 498.232 154.692 498.232 161.796V193.092H481.912V164.004C481.912 160.42 480.984 157.636 479.128 155.652C477.272 153.668 474.776 152.676 471.64 152.676C468.504 152.676 466.008 153.668 464.152 155.652C462.296 157.636 461.368 160.42 461.368 164.004V193.092H444.952V139.524H461.368V146.628C463.032 144.26 465.272 142.404 468.088 141.06C470.904 139.652 474.072 138.948 477.592 138.948ZM534.024 193.86C528.776 193.86 524.04 192.74 519.816 190.5C515.656 188.26 512.36 185.06 509.928 180.9C507.56 176.74 506.376 171.876 506.376 166.308C506.376 160.804 507.592 155.972 510.023 151.812C512.456 147.588 515.784 144.356 520.008 142.116C524.232 139.876 528.968 138.756 534.216 138.756C539.464 138.756 544.2 139.876 548.424 142.116C552.648 144.356 555.976 147.588 558.408 151.812C560.84 155.972 562.056 160.804 562.056 166.308C562.056 171.812 560.808 176.676 558.312 180.9C555.88 185.06 552.52 188.26 548.232 190.5C544.008 192.74 539.272 193.86 534.024 193.86ZM534.024 179.652C537.16 179.652 539.816 178.5 541.992 176.196C544.232 173.892 545.352 170.596 545.352 166.308C545.352 162.02 544.264 158.724 542.088 156.42C539.976 154.116 537.352 152.964 534.216 152.964C531.016 152.964 528.36 154.116 526.248 156.42C524.136 158.66 523.08 161.956 523.08 166.308C523.08 170.596 524.104 173.892 526.152 176.196C528.264 178.5 530.888 179.652 534.024 179.652ZM647.661 139.524L633.165 193.092H615.021L606.573 158.34L597.837 193.092H579.789L565.197 139.524H581.613L589.197 177.828L598.221 139.524H615.597L624.717 177.636L632.205 139.524H647.661ZM650.657 166.212C650.657 160.708 651.681 155.876 653.729 151.716C655.841 147.556 658.689 144.356 662.273 142.116C665.857 139.876 669.857 138.756 674.273 138.756C678.049 138.756 681.345 139.524 684.161 141.06C687.041 142.596 689.249 144.612 690.785 147.108V139.524H707.201V193.092H690.785V185.508C689.185 188.004 686.945 190.02 684.065 191.556C681.249 193.092 677.953 193.86 674.177 193.86C669.825 193.86 665.857 192.74 662.273 190.5C658.689 188.196 655.841 184.964 653.729 180.804C651.681 176.58 650.657 171.716 650.657 166.212ZM690.785 166.308C690.785 162.212 689.633 158.98 687.329 156.612C685.089 154.244 682.337 153.06 679.073 153.06C675.809 153.06 673.025 154.244 670.721 156.612C668.481 158.916 667.361 162.116 667.361 166.212C667.361 170.308 668.481 173.572 670.721 176.004C673.025 178.372 675.809 179.556 679.073 179.556C682.337 179.556 685.089 178.372 687.329 176.004C689.633 173.636 690.785 170.404 690.785 166.308ZM715.813 166.308C715.813 160.74 716.933 155.876 719.173 151.716C721.477 147.556 724.645 144.356 728.677 142.116C732.773 139.876 737.445 138.756 742.693 138.756C749.413 138.756 755.013 140.516 759.493 144.036C764.037 147.556 767.013 152.516 768.421 158.916H750.949C749.477 154.82 746.629 152.772 742.405 152.772C739.397 152.772 736.997 153.956 735.205 156.324C733.413 158.628 732.517 161.956 732.517 166.308C732.517 170.66 733.413 174.02 735.205 176.388C736.997 178.692 739.397 179.844 742.405 179.844C746.629 179.844 749.477 177.796 750.949 173.7H768.421C767.013 179.972 764.037 184.9 759.493 188.484C754.949 192.068 749.349 193.86 742.693 193.86C737.445 193.86 732.773 192.74 728.677 190.5C724.645 188.26 721.477 185.06 719.173 180.9C716.933 176.74 715.813 171.876 715.813 166.308ZM785.362 133.956C782.482 133.956 780.114 133.124 778.258 131.46C776.466 129.732 775.57 127.62 775.57 125.124C775.57 122.564 776.466 120.452 778.258 118.788C780.114 117.06 782.482 116.196 785.362 116.196C788.178 116.196 790.482 117.06 792.274 118.788C794.13 120.452 795.058 122.564 795.058 125.124C795.058 127.62 794.13 129.732 792.274 131.46C790.482 133.124 788.178 133.956 785.362 133.956ZM793.618 200.004C793.618 206.596 791.954 211.332 788.626 214.212C785.298 217.156 780.658 218.628 774.706 218.628H768.274V204.708H772.21C774.002 204.708 775.282 204.356 776.05 203.652C776.818 202.948 777.202 201.796 777.202 200.196V139.524H793.618V200.004ZM802.157 166.212C802.157 160.708 803.181 155.876 805.229 151.716C807.341 147.556 810.189 144.356 813.773 142.116C817.357 139.876 821.357 138.756 825.773 138.756C829.549 138.756 832.845 139.524 835.661 141.06C838.541 142.596 840.749 144.612 842.285 147.108V139.524H858.701V193.092H842.285V185.508C840.685 188.004 838.445 190.02 835.565 191.556C832.749 193.092 829.453 193.86 825.677 193.86C821.325 193.86 817.357 192.74 813.773 190.5C810.189 188.196 807.341 184.964 805.229 180.804C803.181 176.58 802.157 171.716 802.157 166.212ZM842.285 166.308C842.285 162.212 841.133 158.98 838.829 156.612C836.589 154.244 833.837 153.06 830.573 153.06C827.309 153.06 824.525 154.244 822.221 156.612C819.981 158.916 818.861 162.116 818.861 166.212C818.861 170.308 819.981 173.572 822.221 176.004C824.525 178.372 827.309 179.556 830.573 179.556C833.837 179.556 836.589 178.372 838.829 176.004C841.133 173.636 842.285 170.404 842.285 166.308Z" fill="#1C1C1C"/>
</svg>