<svg width="14" height="14" viewBox="0 0 14 14" fill="none" xmlns="http://www.w3.org/2000/svg">
<path d="M7.00352 3.41172C5.01602 3.41172 3.41289 5.01484 3.41289 7.00234C3.41289 8.98984 5.01602 10.593 7.00352 10.593C8.99102 10.593 10.5941 8.98984 10.5941 7.00234C10.5941 5.01484 8.99102 3.41172 7.00352 3.41172ZM7.00352 9.33672C5.71914 9.33672 4.66914 8.28984 4.66914 7.00234C4.66914 5.71484 5.71602 4.66797 7.00352 4.66797C8.29102 4.66797 9.33789 5.71484 9.33789 7.00234C9.33789 8.28984 8.28789 9.33672 7.00352 9.33672ZM11.5785 3.26484C11.5785 3.73047 11.2035 4.10234 10.741 4.10234C10.2754 4.10234 9.90352 3.72734 9.90352 3.26484C9.90352 2.80234 10.2785 2.42734 10.741 2.42734C11.2035 2.42734 11.5785 2.80234 11.5785 3.26484ZM13.9566 4.11484C13.9035 2.99297 13.6473 1.99922 12.8254 1.18047C12.0066 0.361719 11.0129 0.105469 9.89102 0.0492187C8.73477 -0.0164062 5.26914 -0.0164062 4.11289 0.0492187C2.99414 0.102344 2.00039 0.358594 1.17852 1.17734C0.356641 1.99609 0.103516 2.98984 0.0472656 4.11172C-0.0183594 5.26797 -0.0183594 8.73359 0.0472656 9.88984C0.100391 11.0117 0.356641 12.0055 1.17852 12.8242C2.00039 13.643 2.99102 13.8992 4.11289 13.9555C5.26914 14.0211 8.73477 14.0211 9.89102 13.9555C11.0129 13.9023 12.0066 13.6461 12.8254 12.8242C13.6441 12.0055 13.9004 11.0117 13.9566 9.88984C14.0223 8.73359 14.0223 5.27109 13.9566 4.11484ZM12.4629 11.1305C12.2191 11.743 11.7473 12.2148 11.1316 12.4617C10.2098 12.8273 8.02227 12.743 7.00352 12.743C5.98477 12.743 3.79414 12.8242 2.87539 12.4617C2.26289 12.218 1.79102 11.7461 1.54414 11.1305C1.17852 10.2086 1.26289 8.02109 1.26289 7.00234C1.26289 5.98359 1.18164 3.79297 1.54414 2.87422C1.78789 2.26172 2.25977 1.78984 2.87539 1.54297C3.79727 1.17734 5.98477 1.26172 7.00352 1.26172C8.02227 1.26172 10.2129 1.18047 11.1316 1.54297C11.7441 1.78672 12.216 2.25859 12.4629 2.87422C12.8285 3.79609 12.7441 5.98359 12.7441 7.00234C12.7441 8.02109 12.8285 10.2117 12.4629 11.1305Z" fill="#004554"/>
</svg>
