<svg width="88" height="16" viewBox="0 0 88 16" fill="none" xmlns="http://www.w3.org/2000/svg">
<g clip-path="url(#clip0_4236_55661)">
<path d="M1.71672 6.21778C1.85735 6.07715 2.08539 6.07715 2.22604 6.21778L9.86592 13.8577C10.0066 13.9983 10.0066 14.2263 9.86592 14.367L8.33795 15.895C8.1973 16.0356 7.96927 16.0356 7.82862 15.895L0.188737 8.25508C0.0480904 8.11445 0.0480902 7.88641 0.188737 7.74576L1.71672 6.21778Z" fill="#00B3DB"/>
<path d="M4.77288 3.16213C4.91351 3.02148 5.14154 3.02148 5.28219 3.16213L12.9221 10.802C13.0627 10.9427 13.0627 11.1707 12.9221 11.3113L11.3941 12.8393C11.2535 12.98 11.0254 12.98 10.8848 12.8393L3.24489 5.19943C3.10424 5.05878 3.10424 4.83074 3.24489 4.69009L4.77288 3.16213Z" fill="#003642"/>
<path d="M4.77288 3.16213C4.91351 3.02148 5.14154 3.02148 5.28219 3.16213L12.9221 10.802C13.0627 10.9427 13.0627 11.1707 12.9221 11.3113L11.3941 12.8393C11.2535 12.98 11.0254 12.98 10.8848 12.8393L3.24489 5.19943C3.10424 5.05878 3.10424 4.83074 3.24489 4.69009L4.77288 3.16213Z" fill="#00B3DB" fill-opacity="0.5"/>
<path d="M7.82877 0.105485C7.96942 -0.0351617 8.19745 -0.0351615 8.33809 0.105485L15.978 7.74537C16.1186 7.88602 16.1186 8.11405 15.978 8.2547L14.45 9.78267C14.3094 9.92332 14.0813 9.92332 13.9407 9.78267L6.30079 2.14278C6.16015 2.00213 6.16015 1.7741 6.30079 1.63346L7.82877 0.105485Z" fill="#003642"/>
<path d="M7.82877 0.105485C7.96942 -0.0351617 8.19745 -0.0351615 8.33809 0.105485L15.978 7.74537C16.1186 7.88602 16.1186 8.11405 15.978 8.2547L14.45 9.78267C14.3094 9.92332 14.0813 9.92332 13.9407 9.78267L6.30079 2.14278C6.16015 2.00213 6.16015 1.7741 6.30079 1.63346L7.82877 0.105485Z" fill="#00B3DB" fill-opacity="0.1"/>
<path d="M20.0833 11.8396C20.0833 11.8856 20.1206 11.9229 20.1666 11.9229H22.2253C22.2713 11.9229 22.3086 11.8856 22.3086 11.8396V8.07475C22.3086 7.98097 22.4396 7.95867 22.4706 8.04717L23.8106 11.8672C23.8223 11.9006 23.8538 11.9229 23.8891 11.9229H25.6331C25.6684 11.9229 25.6999 11.9006 25.7116 11.8672L27.0403 8.0803C27.0713 7.9918 27.2021 8.0141 27.2021 8.10789V11.8396C27.2021 11.8856 27.2394 11.9229 27.2854 11.9229H29.3441C29.3903 11.9229 29.4274 11.8856 29.4274 11.8396V4.2054C29.4274 4.15939 29.3903 4.12207 29.3441 4.12207H26.8051C26.7706 4.12207 26.7398 4.1432 26.7274 4.17529L24.8606 8.99169C24.8333 9.06234 24.7334 9.06274 24.7054 8.99229L22.7951 4.17469C22.7824 4.14292 22.7518 4.12207 22.7176 4.12207H20.1666C20.1206 4.12207 20.0833 4.15939 20.0833 4.2054V11.8396Z" fill="#003642"/>
<path d="M32.7964 9.42609C32.8028 9.43809 32.8061 9.45147 32.8061 9.46505V11.8396C32.8061 11.8856 32.8433 11.9229 32.8894 11.9229H34.9594C35.0054 11.9229 35.0428 11.8856 35.0428 11.8396V9.46505C35.0428 9.45147 35.0461 9.43809 35.0524 9.42609L37.7938 4.24437C37.8231 4.18887 37.7829 4.12207 37.7201 4.12207H35.4023C35.3699 4.12207 35.3404 4.14079 35.3268 4.17009L34.0169 6.9704C33.9869 7.03444 33.8959 7.03444 33.8659 6.9704L32.5559 4.17009C32.5423 4.14079 32.5129 4.12207 32.4806 4.12207H30.1286C30.0659 4.12207 30.0256 4.18887 30.0549 4.24437L32.7964 9.42609Z" fill="#003642"/>
<path d="M40.7369 7.56234C40.6909 7.56234 40.6536 7.52503 40.6536 7.47901V5.95273C40.6536 5.90669 40.6909 5.86939 40.7369 5.86939H41.5392C42.2091 5.86939 42.4816 6.20134 42.4816 6.72139C42.4816 7.23039 42.2091 7.56234 41.5392 7.56234H40.7369ZM44.7522 6.72139C44.7522 5.21654 43.7417 4.12109 41.7549 4.12109H38.5116C38.4656 4.12109 38.4282 4.15839 38.4282 4.20443V11.8386C38.4282 11.8846 38.4656 11.9219 38.5116 11.9219H40.5702C40.6162 11.9219 40.6536 11.8846 40.6536 11.8386V9.37178C40.6536 9.32574 40.6909 9.28844 40.7369 9.28844H41.7549C43.7872 9.28844 44.7522 8.08239 44.7522 6.72139Z" fill="#003642"/>
<path d="M53.4689 7.99445C53.4689 5.6487 51.6528 4 49.3703 4C47.0996 4 45.2603 5.6487 45.2603 7.99445C45.2603 10.3403 47.0996 12 49.3703 12C51.6409 12 53.4689 10.3403 53.4689 7.99445ZM47.5311 7.99445C47.5311 6.76625 48.2123 5.9917 49.3703 5.9917C50.5174 5.9917 51.2096 6.76625 51.2096 7.99445C51.2096 9.20055 50.5174 9.98615 49.3703 9.98615C48.2123 9.98615 47.5311 9.20055 47.5311 7.99445Z" fill="#003642"/>
<path d="M54.4393 4.12109C54.3933 4.12109 54.356 4.15839 54.356 4.20443V11.8386C54.356 11.8846 54.3933 11.9219 54.4393 11.9219H58.9845C59.0305 11.9219 59.0678 11.8846 59.0678 11.8386V10.3455C59.0678 10.2995 59.0305 10.2622 58.9845 10.2622H56.6643C56.6183 10.2622 56.581 10.2249 56.581 10.1789V4.20443C56.581 4.15839 56.5436 4.12109 56.4976 4.12109H54.4393Z" fill="#003642"/>
<path d="M59.8196 11.8386C59.8196 11.8846 59.8569 11.9219 59.9029 11.9219H61.9617C62.0079 11.9219 62.0451 11.8846 62.0451 11.8386V4.20443C62.0451 4.15839 62.0079 4.12109 61.9617 4.12109H59.9029C59.8569 4.12109 59.8196 4.15839 59.8196 4.20443V11.8386Z" fill="#003642"/>
<path d="M62.7556 5.76391C62.7556 5.80993 62.7928 5.84724 62.8389 5.84724H64.784C64.83 5.84724 64.8673 5.88454 64.8673 5.93058V11.8386C64.8673 11.8846 64.9046 11.9219 64.9506 11.9219H67.0096C67.0556 11.9219 67.093 11.8846 67.093 11.8386V5.93058C67.093 5.88454 67.1301 5.84724 67.1763 5.84724H69.1438C69.19 5.84724 69.2271 5.80993 69.2271 5.76391V4.20443C69.2271 4.15839 69.19 4.12109 69.1438 4.12109H62.8389C62.7928 4.12109 62.7556 4.15839 62.7556 4.20443V5.76391Z" fill="#003642"/>
<path d="M69.9373 11.8396C69.9373 11.8856 69.9744 11.9229 70.0206 11.9229H72.0789C72.1249 11.9229 72.1623 11.8856 72.1623 11.8396V4.2054C72.1623 4.15939 72.1249 4.12207 72.0789 4.12207H70.0206C69.9744 4.12207 69.9373 4.15939 69.9373 4.2054V11.8396Z" fill="#003642"/>
<path d="M73.0439 8.00525C73.0439 10.3399 74.6221 11.9775 77.0294 11.9775C79.0003 11.9775 80.4141 10.892 80.8428 9.18011C80.8558 9.12833 80.8163 9.07855 80.7628 9.07855H78.5233C78.4913 9.07855 78.4623 9.09693 78.4476 9.1253C78.1584 9.68201 77.6359 9.98585 76.9949 9.98585C75.9734 9.98585 75.3034 9.2113 75.3034 8.00525C75.3034 6.8102 75.9734 6.03565 76.9949 6.03565C77.6359 6.03565 78.1584 6.33951 78.4476 6.89623C78.4623 6.9246 78.4913 6.943 78.5233 6.943H80.7628C80.8163 6.943 80.8558 6.89321 80.8428 6.84141C80.4141 5.12953 79.0003 4.04395 77.0294 4.04395C74.6221 4.04395 73.0439 5.6816 73.0439 8.00525Z" fill="#003642"/>
<path d="M87.8131 9.55465C87.8131 7.05395 83.9641 7.43015 83.9641 6.26835C83.9641 5.8921 84.2253 5.704 84.5546 5.7151C84.9401 5.7151 85.2351 5.91228 85.2859 6.34385C85.2911 6.38807 85.3274 6.42325 85.3719 6.42325H87.6233C87.6709 6.42325 87.7089 6.38285 87.7051 6.3353C87.5853 4.8411 86.3928 4 84.5884 4C82.8969 4 81.5913 4.8188 81.5913 6.3458C81.5569 9.0567 85.4401 8.47025 85.4514 9.7206C85.4514 10.0858 85.1446 10.2849 84.7476 10.2849C84.3571 10.2849 84.0186 10.1033 83.9494 9.5763C83.9439 9.53312 83.9079 9.4993 83.8644 9.4993H81.6563C81.6084 9.4993 81.5703 9.53998 81.5743 9.58763C81.7089 11.1993 83.0759 12 84.8271 12C86.7233 12 87.8131 10.9267 87.8131 9.55465Z" fill="#003642"/>
</g>
<defs>
<clipPath id="clip0_4236_55661">
<rect width="87.8333" height="16" fill="white"/>
</clipPath>
</defs>
</svg>
